<?xml version="1.0" encoding="UTF-8" standalone="no"?>
<!DOCTYPE svg PUBLIC "-//W3C//DTD SVG 1.1//EN"
 "http://www.w3.org/Graphics/SVG/1.1/DTD/svg11.dtd">
<!-- Generated by graphviz version 2.40.1 (20161225.0304)
 -->
<!-- Title: G Pages: 1 -->
<svg width="480pt" height="396pt"
 viewBox="0.00 0.00 479.98 396.00" xmlns="http://www.w3.org/2000/svg" xmlns:xlink="http://www.w3.org/1999/xlink">
<g id="graph0" class="graph" transform="scale(1 1) rotate(0) translate(4 392)">
<title>G</title>
<polygon fill="#ffffff" stroke="transparent" points="-4,4 -4,-392 475.9785,-392 475.9785,4 -4,4"/>
<!-- quantile -->
<g id="node1" class="node">
<title>quantile</title>
<ellipse fill="none" stroke="#000000" cx="160.3068" cy="-262" rx="42.2932" ry="18"/>
<text text-anchor="middle" x="160.3068" y="-257.8" font-family="Times,serif" font-size="14.00" fill="#000000">quantile</text>
</g>
<!-- return -->
<g id="node3" class="node">
<title>return</title>
<ellipse fill="none" stroke="#000000" cx="302.5961" cy="-370" rx="34.1871" ry="18"/>
<text text-anchor="middle" x="302.5961" y="-365.8" font-family="Times,serif" font-size="14.00" fill="#000000">return</text>
</g>
<!-- quantile&#45;&gt;return -->
<g id="edge2" class="edge">
<title>quantile&#45;&gt;return</title>
<path fill="none" stroke="#000000" d="M188.2714,-275.4898C194.7412,-279.335 201.3151,-283.8885 206.7505,-289 227.7631,-308.7603 220.7506,-324.3451 242.7505,-343 248.9854,-348.287 256.4239,-352.7307 263.9022,-356.3888"/>
<polygon fill="#000000" stroke="#000000" points="262.7517,-359.7086 273.3084,-360.6064 265.6157,-353.3213 262.7517,-359.7086"/>
</g>
<!-- range -->
<g id="node4" class="node">
<title>range</title>
<ellipse fill="none" stroke="#000000" cx="302.5961" cy="-316" rx="32.4634" ry="18"/>
<text text-anchor="middle" x="302.5961" y="-311.8" font-family="Times,serif" font-size="14.00" fill="#000000">range</text>
</g>
<!-- quantile&#45;&gt;range -->
<g id="edge3" class="edge">
<title>quantile&#45;&gt;range</title>
<path fill="none" stroke="#000000" d="M191.8854,-273.9844C213.8072,-282.3039 243.0778,-293.4123 266.0159,-302.1175"/>
<polygon fill="#000000" stroke="#000000" points="264.8277,-305.4101 275.419,-305.686 267.3115,-298.8655 264.8277,-305.4101"/>
</g>
<!-- realise -->
<g id="node5" class="node">
<title>realise</title>
<ellipse fill="none" stroke="#000000" cx="302.5961" cy="-262" rx="36.4703" ry="18"/>
<text text-anchor="middle" x="302.5961" y="-257.8" font-family="Times,serif" font-size="14.00" fill="#000000">realise</text>
</g>
<!-- quantile&#45;&gt;realise -->
<g id="edge4" class="edge">
<title>quantile&#45;&gt;realise</title>
<path fill="none" stroke="#000000" d="M202.613,-262C219.3017,-262 238.5387,-262 255.6541,-262"/>
<polygon fill="#000000" stroke="#000000" points="255.995,-265.5001 265.995,-262 255.9949,-258.5001 255.995,-265.5001"/>
</g>
<!-- median -->
<g id="node6" class="node">
<title>median</title>
<ellipse fill="none" stroke="#000000" cx="302.5961" cy="-208" rx="39.4254" ry="18"/>
<text text-anchor="middle" x="302.5961" y="-203.8" font-family="Times,serif" font-size="14.00" fill="#000000">median</text>
</g>
<!-- quantile&#45;&gt;median -->
<g id="edge5" class="edge">
<title>quantile&#45;&gt;median</title>
<path fill="none" stroke="#000000" d="M191.8854,-250.0156C212.7109,-242.1122 240.1684,-231.6918 262.5286,-223.206"/>
<polygon fill="#000000" stroke="#000000" points="263.9749,-226.4007 272.0824,-219.5802 261.4912,-219.8562 263.9749,-226.4007"/>
</g>
<!-- cdf -->
<g id="node2" class="node">
<title>cdf</title>
<ellipse fill="none" stroke="#000000" cx="38.9316" cy="-209" rx="27" ry="18"/>
<text text-anchor="middle" x="38.9316" y="-204.8" font-family="Times,serif" font-size="14.00" fill="#000000">cdf</text>
</g>
<!-- cdf&#45;&gt;quantile -->
<g id="edge1" class="edge">
<title>cdf&#45;&gt;quantile</title>
<path fill="none" stroke="#000000" d="M61.7613,-218.9689C78.5213,-226.2873 101.6951,-236.4065 121.3597,-244.9933"/>
<polygon fill="#000000" stroke="#000000" points="120.1228,-248.2723 130.6879,-249.0665 122.9241,-241.8572 120.1228,-248.2723"/>
</g>
<!-- survival -->
<g id="node7" class="node">
<title>survival</title>
<ellipse fill="none" stroke="#000000" cx="160.3068" cy="-157" rx="42.2932" ry="18"/>
<text text-anchor="middle" x="160.3068" y="-152.8" font-family="Times,serif" font-size="14.00" fill="#000000">survival</text>
</g>
<!-- cdf&#45;&gt;survival -->
<g id="edge6" class="edge">
<title>cdf&#45;&gt;survival</title>
<path fill="none" stroke="#000000" d="M61.7613,-199.2192C78.4033,-192.0894 101.3691,-182.2503 120.9438,-173.8641"/>
<polygon fill="#000000" stroke="#000000" points="122.4246,-177.0374 130.2382,-169.8821 119.6679,-170.603 122.4246,-177.0374"/>
</g>
<!-- chf -->
<g id="node8" class="node">
<title>chf</title>
<ellipse fill="none" stroke="#000000" cx="302.5961" cy="-154" rx="27" ry="18"/>
<text text-anchor="middle" x="302.5961" y="-149.8" font-family="Times,serif" font-size="14.00" fill="#000000">chf</text>
</g>
<!-- survival&#45;&gt;chf -->
<g id="edge7" class="edge">
<title>survival&#45;&gt;chf</title>
<path fill="none" stroke="#000000" d="M202.613,-156.108C222.5196,-155.6883 246.0521,-155.1922 265.2846,-154.7867"/>
<polygon fill="#000000" stroke="#000000" points="265.5527,-158.2819 275.4767,-154.5718 265.4051,-151.2834 265.5527,-158.2819"/>
</g>
<!-- junction -->
<!-- survival&#45;&gt;junction -->
<g id="edge8" class="edge">
<title>survival&#45;&gt;junction</title>
<path fill="none" stroke="#000000" d="M191.3329,-144.7171C206.6629,-138.9036 225.5249,-132.129 242.7505,-127 268.1126,-119.4483 300.4993,-113.3893 302.4987,-113.018"/>
</g>
<!-- hazard -->
<g id="node9" class="node">
<title>hazard</title>
<ellipse fill="none" stroke="#000000" cx="435.2101" cy="-113" rx="36.5383" ry="18"/>
<text text-anchor="middle" x="435.2101" y="-108.8" font-family="Times,serif" font-size="14.00" fill="#000000">hazard</text>
</g>
<!-- density -->
<g id="node10" class="node">
<title>density</title>
<ellipse fill="none" stroke="#000000" cx="38.9316" cy="-84" rx="38.8632" ry="18"/>
<text text-anchor="middle" x="38.9316" y="-79.8" font-family="Times,serif" font-size="14.00" fill="#000000">density</text>
</g>
<!-- moments -->
<g id="node11" class="node">
<title>moments</title>
<ellipse fill="none" stroke="#000000" cx="160.3068" cy="-65" rx="46.3875" ry="18"/>
<text text-anchor="middle" x="160.3068" y="-60.8" font-family="Times,serif" font-size="14.00" fill="#000000">moments</text>
</g>
<!-- density&#45;&gt;moments -->
<g id="edge11" class="edge">
<title>density&#45;&gt;moments</title>
<path fill="none" stroke="#000000" d="M76.0077,-78.1961C85.8342,-76.6579 96.6393,-74.9665 107.1394,-73.3228"/>
<polygon fill="#000000" stroke="#000000" points="107.7328,-76.7726 117.0711,-71.7681 106.6501,-69.8568 107.7328,-76.7726"/>
</g>
<!-- density&#45;&gt;junction -->
<g id="edge9" class="edge">
<title>density&#45;&gt;junction</title>
<path fill="none" stroke="#000000" d="M76.9891,-88.1859C148.865,-96.0914 297.8471,-112.4777 302.4852,-112.9878"/>
</g>
<!-- stdev -->
<g id="node12" class="node">
<title>stdev</title>
<ellipse fill="none" stroke="#000000" cx="302.5961" cy="-72" rx="31.339" ry="18"/>
<text text-anchor="middle" x="302.5961" y="-67.8" font-family="Times,serif" font-size="14.00" fill="#000000">stdev</text>
</g>
<!-- moments&#45;&gt;stdev -->
<g id="edge12" class="edge">
<title>moments&#45;&gt;stdev</title>
<path fill="none" stroke="#000000" d="M205.7192,-60.8929C224.2121,-61.1898 245.3857,-62.3077 263.212,-63.9498"/>
<polygon fill="#000000" stroke="#000000" points="262.9722,-67.4434 273.2754,-64.9751 263.6817,-60.4795 262.9722,-67.4434"/>
</g>
<!-- kurtosis_exc -->
<g id="node13" class="node">
<title>kurtosis_exc</title>
<ellipse fill="none" stroke="#000000" cx="302.5961" cy="-18" rx="59.6916" ry="18"/>
<text text-anchor="middle" x="302.5961" y="-13.8" font-family="Times,serif" font-size="14.00" fill="#000000">kurtosis_exc</text>
</g>
<!-- moments&#45;&gt;kurtosis_exc -->
<g id="edge14" class="edge">
<title>moments&#45;&gt;kurtosis_exc</title>
<path fill="none" stroke="#000000" d="M188.0794,-50.3454C203.7849,-44.0967 224.0505,-37.007 243.1577,-30.9652"/>
<polygon fill="#000000" stroke="#000000" points="244.2006,-34.3063 252.7154,-28.0017 242.1275,-27.6203 244.2006,-34.3063"/>
</g>
<!-- stdev&#45;&gt;moments -->
<g id="edge13" class="edge">
<title>stdev&#45;&gt;moments</title>
<path fill="none" stroke="#000000" d="M271.6447,-76.1603C254.2323,-76.3439 232.0393,-75.5318 212.0565,-74.0678"/>
<polygon fill="#000000" stroke="#000000" points="212.0942,-70.5596 201.8453,-73.2446 211.5317,-77.5369 212.0942,-70.5596"/>
</g>
<!-- kurtosis_exc&#45;&gt;moments -->
<g id="edge15" class="edge">
<title>kurtosis_exc&#45;&gt;moments</title>
<path fill="none" stroke="#000000" d="M272.4189,-33.604C254.9704,-40.4413 232.5351,-48.1494 212.3244,-54.3463"/>
<polygon fill="#000000" stroke="#000000" points="211.1874,-51.0331 202.613,-57.2565 213.1969,-57.7385 211.1874,-51.0331"/>
</g>
<!-- odds -->
<g id="node14" class="node">
<title>odds</title>
<ellipse fill="none" stroke="#000000" cx="160.3068" cy="-316" rx="29.0567" ry="18"/>
<text text-anchor="middle" x="160.3068" y="-311.8" font-family="Times,serif" font-size="14.00" fill="#000000">odds</text>
</g>
<!-- pmf -->
<g id="node15" class="node">
<title>pmf</title>
<ellipse fill="none" stroke="#000000" cx="38.9316" cy="-316" rx="27" ry="18"/>
<text text-anchor="middle" x="38.9316" y="-311.8" font-family="Times,serif" font-size="14.00" fill="#000000">pmf</text>
</g>
<!-- pmf&#45;&gt;odds -->
<g id="edge16" class="edge">
<title>pmf&#45;&gt;odds</title>
<path fill="none" stroke="#000000" d="M66.1705,-316C82.1794,-316 102.7043,-316 120.5008,-316"/>
<polygon fill="#000000" stroke="#000000" points="120.6091,-319.5001 130.609,-316 120.609,-312.5001 120.6091,-319.5001"/>
</g>
<!-- junction&#45;&gt;hazard -->
<g id="edge10" class="edge">
<title>junction&#45;&gt;hazard</title>
<path fill="none" stroke="#000000" d="M302.6922,-113C305.0652,-113 350.9082,-113 388.0174,-113"/>
<polygon fill="#000000" stroke="#000000" points="388.2092,-116.5001 398.2091,-113 388.2091,-109.5001 388.2092,-116.5001"/>
</g>
</g>
</svg>

